<svg width="51" height="51" viewBox="0 0 51 51" fill="none" xmlns="http://www.w3.org/2000/svg">
<path d="M22.0226 6.375C18.9278 6.375 15.9025 7.29272 13.3293 9.0121C10.756 10.7315 8.75043 13.1753 7.5661 16.0345C6.38176 18.8938 6.07189 22.04 6.67566 25.0753C7.27942 28.1107 8.76972 30.8988 10.9581 33.0872C13.1464 35.2756 15.9346 36.7658 18.9699 37.3696C22.0053 37.9734 25.1515 37.6635 28.0107 36.4792C30.87 35.2948 33.3138 33.2892 35.0332 30.716C36.7525 28.1428 37.6703 25.1175 37.6703 22.0226C37.67 17.8727 36.0213 13.8928 33.0869 10.9584C30.1524 8.02394 26.1726 6.37526 22.0226 6.375Z" stroke="white" stroke-width="5" stroke-miterlimit="10"/>
<path d="M33.6969 33.6969L44.625 44.625" stroke="white" stroke-width="5" stroke-miterlimit="10" stroke-linecap="round"/>
</svg>
