<svg width="57" height="57" viewBox="0 0 57 57" fill="none" xmlns="http://www.w3.org/2000/svg">
<path d="M50.7187 17.9561C50.3841 17.6161 49.9858 17.3465 49.5471 17.1628C49.1083 16.9792 48.6378 16.8852 48.1628 16.8862H40.9408V15.0651C40.9408 11.6843 39.6092 8.4419 37.239 6.05128C34.8688 3.66065 31.6542 2.31761 28.3022 2.31761C24.9502 2.31761 21.7356 3.66065 19.3654 6.05128C16.9952 8.4419 15.6636 11.6843 15.6636 15.0651V16.8862H8.44159C7.48389 16.8862 6.56541 17.2699 5.88821 17.953C5.21101 18.636 4.83057 19.5624 4.83057 20.5284V45.1129C4.83057 49.5518 8.55443 53.3077 12.9554 53.3077H43.649C45.7778 53.3084 47.8224 52.4689 49.3454 50.9688C50.1119 50.2313 50.7222 49.3448 51.1396 48.3628C51.557 47.3807 51.7727 46.3236 51.7738 45.2552V20.5284C51.7753 20.0506 51.6828 19.5772 51.5017 19.1357C51.3206 18.6941 51.0545 18.2932 50.7187 17.9561ZM19.2747 15.0651C19.2747 12.6502 20.2258 10.3343 21.9188 8.62667C23.6118 6.91908 25.9079 5.95976 28.3022 5.95976C30.6965 5.95976 32.9927 6.91908 34.6856 8.62667C36.3786 10.3343 37.3298 12.6502 37.3298 15.0651V16.8862H19.2747V15.0651Z" fill="white"/>
</svg>
