<svg width="403" height="52" viewBox="0 0 403 52" fill="none" xmlns="http://www.w3.org/2000/svg">
<path d="M357.904 0.533805C358.036 1.82914 357.941 4.59345 357.939 6.00841L357.933 16.7721L357.939 51.2135C355.448 51.1782 352.955 51.1885 350.464 51.2447L350.446 47.8082C343.187 52.8442 336.095 53.4055 328.303 49.151C324.074 46.7368 320.81 42.4711 319.519 37.7819C314.466 19.4301 334.947 5.18765 350.437 16.8453C350.501 11.4586 350.453 5.95648 350.462 0.557243C352.943 0.645289 355.425 0.637071 357.904 0.533805ZM74.1191 0.525993C74.1957 5.91774 74.1348 11.4493 74.1377 16.8522C77.8459 14.4758 80.3505 13.029 84.9013 12.7057C90.1022 12.3117 95.2469 13.999 99.206 17.3981C103.176 20.846 105.587 25.7536 105.892 31.0065C106.286 36.9692 104.506 41.3527 100.672 45.7408C96.8108 49.9122 90.8865 52.2994 85.207 51.941C80.8796 51.6679 77.7186 50.0612 74.1504 47.8024L74.1191 51.2477C71.797 51.1355 69.1779 51.1969 66.831 51.2047C66.6383 34.4635 66.8201 17.3234 66.8242 0.547477C69.1619 0.692231 71.7856 0.618165 74.1191 0.525993ZM39.9697 0.610954C50.7848 0.610954 52.9397 8.09146 52.9414 8.09728C52.9414 8.09728 55.9081 14.8415 51.8945 20.5934C48.7349 25.1213 44.3137 26.0827 42.5752 26.2877C44.3136 26.4927 48.7349 27.4544 51.8945 31.982C55.9081 37.7339 52.9414 44.4791 52.9414 44.4791C52.9236 44.5401 50.7446 51.9654 39.9697 51.9654C29.189 51.9651 27.0143 39.214 26.999 39.1236C26.9863 39.1989 24.8145 51.9651 14.0273 51.9654C3.25125 51.9654 1.07289 44.5386 1.05563 44.4791C1.05563 44.4791 -1.91114 37.7339 2.1025 31.982C5.26146 27.4553 9.68169 26.493 11.4209 26.2877C9.6816 26.0824 5.26143 25.1204 2.1025 20.5934C-1.91109 14.8415 1.05563 8.09728 1.05563 8.09728C1.05563 8.09728 3.20794 0.610954 14.0273 0.610954C24.8463 0.611255 26.999 13.4528 26.999 13.4528C27.0054 13.4147 29.1668 0.611313 39.9697 0.610954ZM187.395 12.6861C198.206 11.8334 207.664 19.9124 208.521 30.735C209.379 41.5579 201.313 51.0296 190.502 51.8942C179.683 52.7591 170.212 44.6773 169.353 33.8463C168.495 23.0154 176.574 13.5397 187.395 12.6861ZM144.511 12.6959C155.327 11.8178 164.805 19.8898 165.671 30.7184C166.537 41.547 158.463 51.0258 147.645 51.8815C136.842 52.7356 127.391 44.6678 126.526 33.8551C125.662 23.0425 133.71 13.5728 144.511 12.6959ZM381.188 12.6998C381.88 12.6208 383.528 12.6571 384.216 12.7145C389.385 13.1587 394.167 15.6468 397.499 19.6285C401.255 24.0846 402.48 29.0594 401.989 34.8033C392.076 34.6889 380.416 34.5729 370.541 34.8326C372.517 40.4681 376.218 44.3343 382.59 44.4391C386.58 44.5046 389.615 42.2866 392.332 39.5338L394.65 39.5201L400.807 39.525C392.474 59.103 364.528 54.1965 362.965 33.7281C362.563 28.5397 364.23 23.4032 367.598 19.4391C371.055 15.4053 375.921 13.1051 381.188 12.6998ZM291.123 0.539665C291.084 5.43249 291.087 10.3256 291.132 15.2184C293.742 15.2632 296.354 15.2496 298.963 15.1774C299.105 16.9645 299.002 20.7594 299.011 22.7242C296.512 22.8086 293.609 22.7339 291.08 22.7311C291.212 25.6163 291.096 29.3497 291.096 32.3414L291.094 51.2252C289.807 51.3618 285.103 51.2267 283.642 51.2233C283.514 48.1678 283.613 44.5206 283.613 41.3922L283.592 22.7194C281.189 22.6795 278.618 22.7396 276.203 22.7526C276.121 20.4023 276.207 17.5471 276.216 15.1578C278.462 15.3278 281.31 15.2434 283.603 15.2213C283.604 13.1214 283.315 1.28869 283.893 0.605094C286.302 0.639462 288.714 0.617435 291.123 0.539665ZM256.203 12.652C260.524 12.6152 264.687 14.2835 267.788 17.2965C273.612 23.0364 272.689 29.3977 272.687 36.8102L272.707 51.2067C270.228 51.1842 267.749 51.1831 265.27 51.2037C264.934 46.5041 265.371 40.8415 265.206 36.1168C265.053 31.7584 266.054 26.0508 262.647 22.9186C260.595 21.0307 258.982 20.1712 256.197 20.1744C253.861 20.1818 251.626 21.1296 249.995 22.8043C246.974 25.8602 247.336 29.9495 247.355 33.941L247.353 51.2135C244.882 51.1795 242.41 51.188 239.94 51.2389L239.935 36.3278C239.938 33.6206 240.271 27.6879 239.074 25.359C234.561 16.5839 222.199 19.5149 222.079 29.6158C221.995 36.7553 222.23 44.1474 222.064 51.2838C219.641 51.1407 217.064 51.2065 214.624 51.2291C214.478 47.132 214.612 42.539 214.586 38.3883C214.703 34.2547 214.235 30.0258 214.948 25.943C216.274 18.3555 222.248 13.4234 229.71 12.6988C230.663 12.6478 231.451 12.6238 232.406 12.7018C236.789 13.099 240.838 15.2143 243.673 18.5865C246.479 14.7849 251.56 12.699 256.203 12.652ZM312.624 15.1363C312.448 26.9954 312.601 39.3428 312.601 51.2369C310.088 51.159 307.654 51.2062 305.145 51.2477L305.141 15.1549C307.475 15.3263 310.291 15.2467 312.624 15.1363ZM119.641 51.2252C117.208 51.1389 114.645 51.2111 112.201 51.2447C111.801 35.2155 112.426 18.9166 112.172 2.86193C112.161 2.19713 112.128 1.22354 112.307 0.590446C114.762 0.63721 117.219 0.622602 119.674 0.546501L119.641 51.2252ZM201.015 31.6793C200.68 25.0281 195.044 19.8956 188.397 20.1901C181.694 20.4872 176.514 26.1881 176.851 32.8961C177.188 39.6042 182.914 44.7565 189.613 44.3785C196.255 44.0038 201.349 38.3306 201.015 31.6793ZM158.145 31.7477C157.845 25.0577 152.174 19.883 145.492 20.1998C138.832 20.5158 133.685 26.1682 133.984 32.8356C134.284 39.5032 139.918 44.6702 146.579 44.3863C153.263 44.1013 158.446 38.438 158.145 31.7477ZM350.407 31.5699C350.011 24.938 344.346 19.8657 337.719 20.2057C331.01 20.5499 325.867 26.3034 326.269 33.0162C326.67 39.7295 332.463 44.8278 339.165 44.3678C345.785 43.9133 350.804 38.2015 350.407 31.5699ZM98.4062 31.6334C98.0449 24.966 92.357 19.8524 85.6963 20.2067C79.0253 20.5616 73.9066 26.2664 74.2685 32.944C74.6304 39.6216 80.3355 44.7393 87.0058 44.3697C93.6656 44.0006 98.7675 38.3006 98.4062 31.6334ZM17.75 16.8502C14.0273 16.8502 12.1661 18.0021 12.166 20.5934C12.166 25.4786 16.5332 24.7794 16.7509 26.2301H16.7607C16.7607 26.2496 16.7562 26.2689 16.7548 26.2877C16.7562 26.3067 16.7607 26.3257 16.7607 26.3453H16.7509C16.5342 27.7967 12.1662 27.0966 12.166 31.982C12.166 34.5735 14.0272 35.7252 17.75 35.7252C24.1344 35.725 25.1124 27.0758 25.1884 26.2877C25.112 25.4961 24.1329 16.8504 17.75 16.8502ZM36.247 16.8502C29.8639 16.8505 28.8839 25.4967 28.8076 26.2877C28.8835 27.0751 29.8624 35.7249 36.247 35.7252C39.9698 35.7252 41.832 34.5735 41.832 31.982C41.8318 27.0966 37.4628 27.7967 37.2461 26.3453H37.2363C37.2363 26.3257 37.2398 26.3066 37.2412 26.2877C37.2398 26.2689 37.2363 26.2496 37.2363 26.2301H37.2461C37.4638 24.7794 41.832 25.4786 41.832 20.5934C41.8319 18.0021 39.9697 16.8502 36.247 16.8502ZM386.77 20.9176C385.77 20.474 383.204 20.0053 382.165 20.1686C376.412 20.6565 373.242 23.2231 371.087 28.4967L382.958 28.4889C386.619 28.4942 390.366 28.4615 394.02 28.5231C392.363 24.7565 390.786 22.703 386.77 20.9176ZM307.787 0.123649C309.5 -0.269501 311.29 0.289931 312.475 1.58752C313.661 2.88507 314.057 4.7204 313.513 6.3922C312.969 8.064 311.569 9.31389 309.848 9.66369C307.232 10.1949 304.675 8.52344 304.111 5.91271C303.548 3.30162 305.185 0.721081 307.787 0.123649Z" fill="white"/>
</svg>
