<svg width="48" height="48" viewBox="0 0 48 48" fill="none" xmlns="http://www.w3.org/2000/svg">
<path d="M24 18.6667C25.2257 18.6667 26.4393 18.4253 27.5717 17.9562C28.7041 17.4872 29.733 16.7997 30.5997 15.933C31.4663 15.0663 32.1538 14.0374 32.6229 12.905C33.0919 11.7727 33.3333 10.559 33.3333 9.33333C33.3333 8.10766 33.0919 6.89399 32.6229 5.76162C32.1538 4.62925 31.4663 3.60035 30.5997 2.73367C29.733 1.86699 28.7041 1.1795 27.5717 0.710458C26.4393 0.241414 25.2257 -2.58291e-08 24 0C21.5246 5.21642e-08 19.1507 0.983331 17.4003 2.73367C15.65 4.48401 14.6667 6.85798 14.6667 9.33333C14.6667 11.8087 15.65 14.1827 17.4003 15.933C19.1507 17.6833 21.5246 18.6667 24 18.6667ZM0 46.4V48H48V46.4C48 40.4267 48 37.44 46.8373 35.1573C45.8147 33.1504 44.183 31.5186 42.176 30.496C39.8933 29.3333 36.9067 29.3333 30.9333 29.3333H17.0667C11.0933 29.3333 8.10667 29.3333 5.824 30.496C3.81703 31.5186 2.1853 33.1504 1.16267 35.1573C3.17891e-07 37.44 0 40.4267 0 46.4Z" fill="white"/>
</svg>
